<svg width="416" height="230" viewBox="0 0 416 230" fill="none" xmlns="http://www.w3.org/2000/svg">
<path d="M120.526 75.671C120.567 75.815 120.672 76.44 120.841 77.545C121.01 78.65 121.123 80.066 121.179 81.791C121.236 83.517 121.163 85.442 120.96 87.565C120.797 89.701 120.37 91.84 119.68 93.982C118.555 97.472 116.93 100.406 114.806 102.786C112.682 105.166 110.176 106.963 107.29 108.178C104.455 109.365 101.285 109.963 97.781 109.972C94.315 109.993 90.659 109.384 86.812 108.144C83.124 106.955 79.226 105.195 75.118 102.864C70.971 100.52 66.794 97.86 62.587 94.885C58.38 91.909 54.231 88.755 50.14 85.422C46.061 82.05 42.22 78.754 38.617 75.535C34.987 72.264 31.702 69.213 28.762 66.383C25.782 63.54 23.321 61.127 21.377 59.143C23.2 62.182 25.316 65.666 27.727 69.595C30.098 73.512 32.742 77.735 35.66 82.265C38.551 86.743 41.674 91.449 45.031 96.383C48.347 101.305 51.85 106.33 55.537 111.459C59.198 116.535 63.004 121.636 66.955 126.762C70.867 131.875 74.869 136.843 78.963 141.664L77.09 144.213C70.818 141.535 64.727 138.498 58.816 135.105C52.879 131.659 47.25 128.137 41.93 124.54C36.584 120.89 31.64 117.283 27.098 113.718C22.529 110.1 18.484 106.76 14.961 103.699C17.753 107.532 20.863 111.467 24.289 115.505C27.689 119.49 31.214 123.559 34.866 127.713C38.478 131.855 42.104 136.088 45.745 140.413C49.345 144.726 52.749 149.106 55.955 153.554C59.122 157.99 61.974 162.521 64.51 167.147C67.02 171.721 68.977 176.379 70.381 181.122C71.838 185.838 72.63 190.646 72.758 195.547C72.898 200.408 72.163 205.336 70.553 210.333C69.313 214.18 67.613 217.485 65.453 220.247C63.293 223.009 60.837 225.194 58.086 226.803C55.387 228.385 52.498 229.336 49.418 229.656C46.325 230.016 43.212 229.691 40.079 228.682C37.025 227.697 34.429 226.313 32.29 224.529C30.098 222.772 28.313 220.774 26.933 218.534C25.514 216.282 24.456 213.861 23.758 211.272C23.033 208.631 22.598 205.974 22.453 203.3C22.308 200.627 22.407 198.01 22.751 195.45C23.107 192.851 23.643 190.441 24.359 188.22C25.842 183.62 27.816 179.397 30.281 175.551C32.707 171.693 35.934 168.268 39.963 165.276L41.612 168.106C41.56 168.133 41.036 168.533 40.043 169.307C39.009 170.069 37.776 171.247 36.342 172.842C34.909 174.438 33.407 176.515 31.838 179.074C30.282 181.593 28.935 184.617 27.797 188.147C26.698 191.557 26.087 195.015 25.964 198.522C25.853 201.988 26.333 205.251 27.405 208.311C28.449 211.318 30.143 214.009 32.486 216.384C34.789 218.746 37.824 220.534 41.591 221.749C44.288 222.618 46.953 222.908 49.585 222.618C52.23 222.289 54.686 221.461 56.953 220.134C59.259 218.819 61.309 217.007 63.105 214.696C64.9 212.386 66.309 209.644 67.332 206.472C68.866 201.713 69.325 196.826 68.708 191.812C68.092 186.798 66.711 181.712 64.564 176.555C62.418 171.398 59.645 166.214 56.247 161.003C52.861 155.753 49.166 150.578 45.162 145.479C41.172 140.34 37.003 135.275 32.658 130.285C28.313 125.295 24.134 120.467 20.122 115.803C16.069 111.126 12.329 106.637 8.89996 102.336C5.43096 98.022 2.55696 93.966 0.279663 90.167L2.74896 88.008C7.49996 91.466 11.694 94.481 15.33 97.054C18.926 99.614 22.098 101.862 24.845 103.798C27.604 105.695 29.986 107.338 31.99 108.728C34.006 110.078 35.81 111.273 37.401 112.311C38.993 113.349 40.438 114.297 41.738 115.153C43.011 115.958 44.278 116.782 45.538 117.626C46.811 118.43 48.144 119.32 49.537 120.294C50.931 121.268 52.55 122.425 54.395 123.764C56.2 125.09 58.304 126.644 60.706 128.425C63.069 130.194 65.864 132.32 69.091 134.805C65.128 129.85 61.27 124.842 57.517 119.78C53.777 114.678 50.189 109.647 46.754 104.687C43.318 99.728 40.055 94.911 36.965 90.237C33.887 85.524 31.043 81.105 28.433 76.981C25.835 72.816 23.491 69.018 21.402 65.587C19.285 62.103 17.496 59.096 16.035 56.568C14.573 54.039 13.434 52.074 12.616 50.672C11.811 49.231 11.395 48.484 11.369 48.431L14.018 46.527C19.054 50.733 24.116 54.926 29.204 59.105C34.252 63.272 39.188 67.314 44.01 71.232C48.845 75.111 53.526 78.787 58.054 82.26C62.582 85.733 66.869 88.867 70.916 91.659C74.923 94.439 78.642 96.82 82.075 98.802C85.48 100.732 88.492 102.118 91.109 102.962C94.203 103.959 97.113 104.503 99.842 104.595C102.583 104.647 105.05 104.26 107.242 103.434C109.435 102.609 111.313 101.332 112.877 99.603C114.493 97.848 115.717 95.681 116.548 93.104C117.174 91.16 117.563 89.206 117.715 87.241C117.88 85.237 117.934 83.438 117.879 81.844C117.824 80.25 117.719 78.947 117.564 77.934C117.409 76.921 117.337 76.394 117.35 76.354L120.526 75.671Z" fill="white"/>
<path d="M115.586 66.099C115.78 66.567 115.992 67.024 116.222 67.47C116.452 67.916 116.699 68.351 116.964 68.775C117.759 70.047 118.698 71.155 119.78 72.1C120.876 72.988 122.053 73.652 123.312 74.094C124.584 74.478 125.904 74.586 127.273 74.418C128.678 74.228 130.069 73.702 131.447 72.841C136.075 69.947 139.561 65.581 141.906 59.741C144.25 53.902 145.428 46.237 145.44 36.745L148.236 37.209C148.334 42.553 148.021 47.319 147.297 51.506C146.551 55.657 145.496 59.315 144.132 62.477C142.803 65.618 141.222 68.277 139.39 70.454C137.557 72.632 135.599 74.372 133.514 75.676C131.995 76.626 130.255 77.419 128.294 78.055C126.333 78.691 124.319 78.968 122.252 78.884C120.221 78.778 118.226 78.182 116.27 77.096C114.278 76.032 112.508 74.263 110.962 71.79C109.306 69.141 108.174 66.31 107.569 63.298C106.906 60.272 106.636 57.247 106.759 54.222C106.882 51.196 107.339 48.233 108.129 45.331C108.897 42.393 109.849 39.71 110.983 37.281C112.153 34.829 113.447 32.694 114.865 30.874C116.26 29.019 117.664 27.649 119.077 26.766C119.996 26.191 121.021 25.747 122.151 25.434C123.282 25.12 124.406 25.031 125.523 25.168C126.676 25.283 127.791 25.691 128.869 26.393C129.982 27.073 130.969 28.102 131.831 29.48C133.002 31.352 133.664 33.395 133.819 35.608C133.988 37.763 133.789 40 133.224 42.319C132.637 44.602 131.743 46.906 130.542 49.229C129.319 51.517 127.908 53.702 126.31 55.782C124.711 57.863 122.996 59.795 121.163 61.58C119.33 63.364 117.471 64.871 115.586 66.099ZM114.585 63.555C116.797 61.828 118.714 59.941 120.334 57.896C121.955 55.851 123.3 53.757 124.368 51.615C125.414 49.438 126.211 47.293 126.759 45.182C127.341 43.049 127.683 41.041 127.785 39.16C127.886 37.278 127.808 35.582 127.552 34.072C127.295 32.561 126.869 31.329 126.273 30.375C125.676 29.421 124.936 28.827 124.053 28.593C123.205 28.337 122.428 28.43 121.721 28.872C120.167 29.844 118.771 31.503 117.535 33.848C116.276 36.158 115.294 38.91 114.588 42.103C113.86 45.261 113.458 48.706 113.384 52.438C113.345 56.148 113.745 59.854 114.585 63.555Z" fill="white"/>
<path d="M166.143 38.7C166.171 39.206 166.219 39.708 166.288 40.205C166.356 40.702 166.445 41.194 166.555 41.682C166.882 43.146 167.4 44.503 168.107 45.754C168.845 46.955 169.735 47.973 170.776 48.807C171.848 49.592 173.058 50.132 174.405 50.428C175.793 50.715 177.28 50.681 178.866 50.326C184.192 49.134 188.93 46.173 193.081 41.443C197.231 36.714 200.888 29.875 204.051 20.926L206.534 22.291C204.852 27.365 202.974 31.756 200.901 35.465C198.819 39.134 196.609 42.233 194.272 44.763C191.976 47.284 189.602 49.267 187.15 50.713C184.699 52.159 182.273 53.15 179.874 53.687C178.126 54.079 176.221 54.249 174.16 54.198C172.099 54.147 170.108 53.739 168.186 52.974C166.305 52.199 164.621 50.975 163.136 49.301C161.611 47.635 160.529 45.38 159.892 42.533C159.209 39.484 159.082 36.438 159.511 33.396C159.891 30.322 160.641 27.379 161.762 24.566C162.882 21.753 164.297 19.109 166.006 16.634C167.706 14.119 169.494 11.904 171.371 9.98897C173.289 8.06497 175.219 6.47997 177.16 5.23397C179.092 3.94797 180.872 3.12297 182.498 2.75797C183.555 2.52197 184.669 2.44297 185.84 2.52297C187.01 2.60197 188.1 2.89197 189.109 3.39197C190.158 3.88297 191.074 4.63797 191.858 5.65897C192.682 6.66997 193.272 7.96797 193.627 9.55397C194.109 11.709 194.056 13.855 193.467 15.994C192.91 18.083 191.98 20.127 190.677 22.127C189.365 24.086 187.757 25.962 185.853 27.754C183.939 29.506 181.883 31.098 179.685 32.53C177.486 33.961 175.226 35.215 172.905 36.289C170.584 37.364 168.33 38.168 166.143 38.7ZM166.044 35.968C168.704 35.074 171.138 33.931 173.346 32.54C175.554 31.149 177.517 29.621 179.237 27.955C180.947 26.248 182.411 24.49 183.628 22.68C184.886 20.862 185.875 19.082 186.595 17.34C187.316 15.599 187.806 13.974 188.066 12.464C188.325 10.954 188.332 9.64997 188.086 8.55197C187.841 7.45497 187.34 6.64897 186.584 6.13497C185.87 5.61197 185.105 5.44097 184.292 5.62297C182.503 6.02397 180.636 7.12497 178.691 8.92697C176.737 10.688 174.897 12.957 173.17 15.735C171.435 18.472 169.912 21.588 168.603 25.084C167.334 28.57 166.481 32.198 166.044 35.968Z" fill="white"/>
<path d="M246.277 32.816C244.4 34.342 242.522 35.741 240.642 37.014C238.768 38.245 236.943 39.295 235.167 40.162C233.391 41.029 231.67 41.672 230.004 42.093C228.386 42.478 226.856 42.56 225.414 42.341C223.808 42.095 222.39 41.584 221.159 40.806C219.977 39.993 218.997 38.959 218.219 37.702C217.483 36.452 216.983 35.027 216.722 33.427C216.46 31.828 216.471 30.101 216.753 28.248C217.13 25.776 218.038 23.281 219.476 20.76C220.915 18.24 222.629 15.846 224.619 13.579C226.656 11.277 228.836 9.14297 231.159 7.17997C233.523 5.22197 235.778 3.56397 237.924 2.20597L240.298 4.46497C239.697 5.08997 238.869 5.95397 237.816 7.05697C236.762 8.16097 235.615 9.46097 234.376 10.958C233.142 12.414 231.866 14.01 230.547 15.748C229.269 17.492 228.067 19.289 226.942 21.141C225.816 22.992 224.835 24.866 223.998 26.761C223.202 28.663 222.672 30.479 222.408 32.209C222.282 33.032 222.222 33.845 222.226 34.647C222.277 35.413 222.424 36.11 222.666 36.737C222.948 37.37 223.353 37.895 223.879 38.313C224.406 38.73 225.122 39.008 226.028 39.147C227.47 39.367 229.101 39.173 230.922 38.566C232.79 37.923 234.746 36.979 236.791 35.731C238.884 34.449 241.034 32.922 243.243 31.152C245.494 29.388 247.725 27.473 249.936 25.408C252.148 23.343 254.308 21.207 256.415 19C258.528 16.751 260.512 14.525 262.365 12.321C264.016 10.339 265.668 8.35697 267.319 6.37497C268.976 4.35197 270.624 2.39097 272.263 0.490967L274.941 2.41697C274.887 2.49297 274.376 3.21597 273.408 4.58597C272.488 5.91997 271.239 7.75297 269.661 10.083C268.09 12.372 266.249 15.042 264.14 18.092C262.078 21.107 259.879 24.333 257.542 27.77C255.212 31.166 252.824 34.658 250.38 38.247C247.977 41.842 245.63 45.341 243.341 48.743C249.639 46.416 255.472 43.408 260.84 39.717C266.25 36.032 271.011 32.038 275.124 27.734L277.146 29.813C272.726 34.744 267.505 39.132 261.481 42.976C255.464 46.778 248.383 50.229 240.239 53.327C235.701 60.138 231.323 66.319 227.104 71.871C222.926 77.429 218.86 82.119 214.905 85.942C210.991 89.77 207.227 92.61 203.615 94.461C199.955 96.347 196.437 97.033 193.059 96.517C190.835 96.178 189.095 95.154 187.838 93.445C186.581 91.736 186.164 89.501 186.585 86.741C186.937 84.435 187.813 82.145 189.214 79.872C190.614 77.599 192.409 75.365 194.599 73.17C196.782 71.016 199.315 68.916 202.199 66.869C205.034 64.857 208.105 62.966 211.41 61.194C214.674 59.416 218.066 57.763 221.587 56.235C225.149 54.713 228.727 53.362 232.321 52.182C233.463 50.502 234.682 48.728 235.978 46.861C237.268 45.034 238.529 43.267 239.759 41.558C240.995 39.808 242.172 38.175 243.288 36.659C244.452 35.109 245.448 33.828 246.277 32.816ZM228.565 57.742C223.381 59.944 218.5 62.381 213.919 65.054C209.373 67.774 205.372 70.515 201.917 73.275C198.413 76.07 195.6 78.76 193.478 81.344C191.355 83.929 190.143 86.21 189.842 88.187C189.64 89.505 189.871 90.615 190.535 91.517C191.157 92.413 192.065 92.952 193.259 93.134C194.866 93.379 196.619 93.077 198.519 92.229C200.371 91.416 202.306 90.194 204.326 88.563C206.303 86.926 208.335 84.939 210.419 82.602C212.498 80.306 214.567 77.797 216.626 75.077C218.719 72.404 220.773 69.577 222.788 66.597C224.796 63.658 226.721 60.706 228.565 57.742Z" fill="white"/>
<path d="M323.338 54.416C322.352 54.924 321.097 55.666 319.573 56.641C318.106 57.6 316.441 58.617 314.579 59.693C312.736 60.732 310.763 61.749 308.661 62.742C306.596 63.756 304.491 64.535 302.348 65.079C300.241 65.644 298.135 65.901 296.03 65.85C293.925 65.8 291.938 65.268 290.07 64.256C289.044 63.7 288.163 63.009 287.425 62.183C286.668 61.394 286.12 60.481 285.782 59.444C285.443 58.408 285.33 57.304 285.443 56.133C285.576 54.926 286 53.663 286.715 52.344C287.687 50.549 289.048 48.869 290.796 47.304C292.6 45.723 294.475 44.275 296.42 42.959C298.365 41.643 300.221 40.493 301.987 39.507C303.773 38.484 305.134 37.634 306.07 36.956C307.006 36.279 307.653 35.61 308.01 34.951C308.268 34.474 308.331 33.964 308.2 33.419C308.106 32.894 307.91 32.337 307.612 31.75C307.371 31.145 307.093 30.521 306.779 29.876C306.521 29.215 306.376 28.521 306.344 27.793C304.634 28.762 302.896 29.739 301.13 30.725C299.592 31.551 297.892 32.502 296.03 33.578C294.187 34.617 292.391 35.658 290.641 36.7L289.497 34.09L311.231 22.053L312.378 23.74C312.186 23.92 311.869 24.199 311.428 24.576C311.023 24.973 310.672 25.446 310.374 25.996C310.156 26.399 309.992 26.831 309.884 27.294C309.832 27.74 309.918 28.236 310.143 28.785C310.893 30.897 311.492 32.548 311.937 33.738C312.403 34.89 312.699 35.786 312.828 36.424C313.012 37.045 313.062 37.522 312.976 37.855C312.947 38.171 312.814 38.549 312.575 38.988C312.337 39.428 311.976 39.919 311.492 40.463C311.008 41.006 310.345 41.618 309.502 42.299C308.696 43 307.654 43.786 306.376 44.657C305.155 45.512 303.659 46.479 301.89 47.558C300.824 48.212 299.749 48.886 298.663 49.577C297.634 50.251 296.632 50.964 295.656 51.715C294.718 52.486 293.852 53.296 293.059 54.147C292.267 54.997 291.623 55.88 291.127 56.796C290.749 57.492 290.533 58.109 290.478 58.648C290.48 59.17 290.586 59.63 290.796 60.029C291.007 60.427 291.276 60.762 291.602 61.034C291.966 61.326 292.33 61.571 292.697 61.769C293.906 62.424 295.285 62.722 296.834 62.661C298.44 62.583 300.119 62.284 301.87 61.764C303.657 61.263 305.469 60.586 307.306 59.733C309.199 58.864 311.047 57.946 312.85 56.979C314.653 56.013 316.343 55.081 317.92 54.182C319.517 53.246 320.923 52.444 322.138 51.776L323.338 54.416Z" fill="white"/>
<path d="M382.468 85.403C381.298 85.717 379.727 86.081 377.754 86.494C375.809 86.939 373.668 87.446 371.332 88.015C369.027 88.556 366.631 89.151 364.142 89.799C361.681 90.479 359.307 91.193 357.019 91.942C354.79 92.695 352.736 93.487 350.856 94.319C349.035 95.155 347.626 96.015 346.629 96.9C345.632 97.785 345.143 98.553 345.163 99.204C345.242 99.858 345.558 100.496 346.112 101.12C346.914 102.024 347.994 102.708 349.354 103.173C350.741 103.669 352.256 103.995 353.9 104.152C355.571 104.341 357.323 104.401 359.157 104.333C360.991 104.266 362.77 104.136 364.493 103.943C366.276 103.755 367.926 103.543 369.445 103.309C370.996 103.047 372.307 102.831 373.38 102.658L373.565 105.503C372.097 105.858 370.469 106.189 368.68 106.495C366.891 106.802 365.017 107.044 363.058 107.222C361.158 107.404 359.22 107.48 357.245 107.451C355.269 107.422 353.362 107.219 351.525 106.844C349.716 106.5 348.023 105.941 346.445 105.168C344.868 104.395 343.513 103.37 342.379 102.092C340.72 100.222 340.064 98.353 340.411 96.485C340.759 94.617 341.821 92.895 343.597 91.318C343.722 91.208 343.987 90.973 344.392 90.613C344.856 90.257 345.24 90 345.545 89.841C342.199 90.025 339.251 89.967 336.701 89.667C334.179 89.398 331.949 88.926 330.012 88.25C328.102 87.604 326.454 86.783 325.067 85.785C323.677 84.846 322.484 83.816 321.489 82.694C320.438 81.51 319.645 80.208 319.11 78.789C318.571 77.428 318.33 76.027 318.387 74.584C318.415 73.11 318.782 71.671 319.485 70.266C320.161 68.831 321.216 67.477 322.65 66.205C324.426 64.629 326.811 63.236 329.806 62.028C332.803 60.76 336.525 59.964 340.972 59.639C344.768 59.335 348.261 59.41 351.451 59.866C354.669 60.353 357.533 61.07 360.045 62.017C362.615 62.967 364.821 64.073 366.665 65.334C368.508 66.595 369.996 67.865 371.13 69.143C373.675 72.01 375.114 74.604 375.447 76.927C375.812 79.221 375.151 81.395 373.464 83.449C374.796 83.381 376.156 83.344 377.544 83.338C378.931 83.333 380.348 83.329 381.795 83.326L382.468 85.403ZM351.968 86.815C352.982 86.639 354.25 86.405 355.773 86.112C357.327 85.792 358.924 85.489 360.565 85.203C362.236 84.889 363.847 84.602 365.398 84.34C366.948 84.079 368.273 83.877 369.374 83.736C369.654 83.487 370.065 83.04 370.605 82.393C371.173 81.778 371.617 81.022 371.936 80.126C372.286 79.202 372.363 78.159 372.167 76.996C371.971 75.834 371.278 74.582 370.089 73.242C369.231 72.276 368.108 71.323 366.717 70.384C365.386 69.449 363.754 68.614 361.82 67.879C359.945 67.147 357.795 66.576 355.37 66.165C352.944 65.755 350.239 65.594 347.252 65.681C342.757 65.826 338.676 66.468 335.007 67.607C331.397 68.749 328.548 70.246 326.46 72.099C324.683 73.676 323.671 75.298 323.424 76.965C323.177 78.633 323.717 80.215 325.045 81.711C326.566 83.425 328.364 84.698 330.44 85.53C332.546 86.335 334.788 86.852 337.165 87.083C339.542 87.313 341.988 87.37 344.504 87.255C347.051 87.112 349.539 86.965 351.968 86.815Z" fill="white"/>
<path d="M414.96 159.569C413.763 159.389 412.177 159.094 410.204 158.684C408.243 158.314 406.078 157.922 403.71 157.509C401.381 157.083 398.946 156.67 396.406 156.269C393.879 155.907 391.417 155.612 389.021 155.383C386.677 155.181 384.477 155.086 382.421 155.097C380.418 155.135 378.783 155.36 377.515 155.772C376.247 156.184 375.492 156.692 375.25 157.297C375.061 157.928 375.095 158.639 375.353 159.432C375.726 160.581 376.443 161.641 377.503 162.61C378.576 163.62 379.834 164.525 381.278 165.327C382.734 166.168 384.316 166.924 386.024 167.595C387.732 168.267 389.414 168.859 391.071 169.372C392.779 169.912 394.377 170.379 395.863 170.772C397.389 171.152 398.677 171.478 399.73 171.749L398.761 174.43C397.274 174.169 395.649 173.821 393.887 173.386C392.124 172.951 390.31 172.424 388.443 171.804C386.629 171.21 384.823 170.505 383.024 169.688C381.225 168.871 379.558 167.923 378.025 166.844C376.504 165.805 375.176 164.616 374.039 163.276C372.903 161.937 372.071 160.455 371.543 158.83C370.77 156.453 370.916 154.477 371.982 152.904C373.048 151.331 374.71 150.177 376.969 149.443C377.127 149.391 377.464 149.282 377.979 149.115C378.547 148.974 379.002 148.892 379.345 148.868C376.204 147.698 373.526 146.466 371.308 145.171C369.104 143.916 367.25 142.591 365.745 141.196C364.253 139.841 363.071 138.429 362.199 136.96C361.3 135.543 360.619 134.122 360.155 132.695C359.666 131.19 359.46 129.679 359.537 128.165C359.587 126.702 359.927 125.321 360.556 124.022C361.172 122.682 362.084 121.51 363.29 120.504C364.484 119.459 365.992 118.64 367.815 118.047C370.074 117.313 372.817 116.991 376.044 117.081C379.299 117.119 383.028 117.878 387.234 119.359C390.835 120.598 394.006 122.064 396.747 123.758C399.502 125.492 401.84 127.294 403.763 129.167C405.739 131.066 407.319 132.962 408.504 134.855C409.689 136.748 410.545 138.507 411.073 140.131C412.258 143.777 412.539 146.731 411.916 148.992C411.333 151.241 409.857 152.969 407.49 154.177C408.738 154.648 409.999 155.158 411.273 155.708C412.547 156.257 413.848 156.82 415.174 157.397L414.96 159.569ZM386.442 148.664C387.442 148.908 388.698 149.201 390.211 149.542C391.763 149.87 393.348 150.231 394.966 150.625C396.623 151.006 398.215 151.387 399.74 151.767C401.266 152.148 402.561 152.493 403.626 152.804C403.983 152.688 404.538 152.442 405.292 152.066C406.059 151.729 406.768 151.214 407.418 150.52C408.109 149.814 408.597 148.888 408.882 147.744C409.167 146.6 409.033 145.176 408.479 143.472C408.08 142.244 407.431 140.921 406.532 139.505C405.686 138.115 404.524 136.696 403.046 135.249C401.62 133.828 399.878 132.445 397.819 131.099C395.761 129.753 393.345 128.522 390.573 127.408C386.396 125.743 382.398 124.698 378.58 124.275C374.814 123.878 371.604 124.111 368.949 124.974C366.69 125.708 365.114 126.79 364.221 128.219C363.327 129.649 363.19 131.315 363.808 133.217C364.516 135.396 365.655 137.282 367.225 138.875C368.834 140.455 370.681 141.826 372.768 142.988C374.854 144.15 377.073 145.181 379.425 146.082C381.817 146.969 384.156 147.83 386.442 148.664Z" fill="white"/>
</svg>
