<?xml version="1.0" encoding="utf-8"?>
<svg width="24" height="24" viewBox="0 0 24 24" fill="none" xmlns="http://www.w3.org/2000/svg">
  <g>
    <rect width="24" height="24" />
    <path id="Path" d="M17.7101 0.292897C17.3196 -0.0976326 16.6864 -0.0976326 16.2959 0.292897C16.2959 0.292897 9.00146 7.58729 9.00146 7.58729C9.00146 7.58729 1.70711 0.292897 1.70711 0.292897C1.31659 -0.0976326 0.683417 -0.0976326 0.292897 0.292897C-0.0976326 0.683417 -0.0976326 1.31659 0.292897 1.70711C0.292897 1.70711 7.58726 9.00149 7.58726 9.00149C7.58726 9.00149 0.292917 16.2958 0.292917 16.2958C-0.0976126 16.6864 -0.0976126 17.3195 0.292917 17.7101C0.683437 18.1006 1.31661 18.1006 1.70713 17.7101C1.70713 17.7101 9.00146 10.4157 9.00146 10.4157C9.00146 10.4157 16.2959 17.7101 16.2959 17.7101C16.6864 18.1006 17.3196 18.1006 17.7101 17.7101C18.1006 17.3195 18.1006 16.6864 17.7101 16.2959C17.7101 16.2959 10.4157 9.00149 10.4157 9.00149C10.4157 9.00149 17.7101 1.70711 17.7101 1.70711C18.1006 1.31659 18.1006 0.683417 17.7101 0.292897C17.7101 0.292897 17.7101 0.292897 17.7101 0.292897Z" fill="#FFFFFF" fill-rule="evenodd" transform="translate(3.036 3.036)" />
  </g>
</svg>